<svg width="84" height="84" viewBox="0 0 84 84" fill="none" xmlns="http://www.w3.org/2000/svg">
<g clip-path="url(#clip0_7_2)">
<path d="M72.8887 48.6028C72.1663 47.6635 71.3655 46.7874 70.4898 45.9911C69.6284 45.208 68.6951 44.5037 67.7056 43.8801C64.6486 41.9532 61.0351 40.8333 57.1624 40.8333H57.0597H56.7734C56.736 40.7389 56.6955 40.6466 56.6568 40.553C55.276 37.198 53.1155 34.296 50.4221 32.036C49.5268 31.285 48.5736 30.6046 47.57 30.003C46.5689 29.4028 45.5194 28.8788 44.4289 28.4409C42.5551 27.6887 40.5629 27.1859 38.4968 26.9686C37.7281 26.8878 36.9502 26.8433 36.1637 26.8433C24.2811 26.8433 14.5529 36.242 14.0215 47.9956C6.10593 49.1211 0 55.9433 0 64.165C0 73.1707 7.32639 80.4971 16.3321 80.4971H38.4972H57.1624C68.0977 80.4971 76.9944 71.6005 76.9944 60.6652C76.9944 56.1297 75.4605 51.9477 72.8887 48.6028Z" fill="#E0E0E2"/>
<path d="M50.4223 32.0362C53.1157 34.2962 55.2762 37.1981 56.657 40.5532L57.0599 40.8334H57.1626C61.0355 40.8334 64.649 41.9533 67.706 43.8803C68.6953 44.5039 69.6285 45.208 70.4901 45.9913C71.366 46.7876 72.1667 47.6637 72.889 48.603C75.5293 45.4818 76.9945 41.5324 76.9945 37.3335C76.9945 27.6846 69.1446 19.8347 59.4958 19.8347C55.678 19.8347 52.0493 21.043 49.0021 23.3293C47.1582 24.7131 45.6006 26.4645 44.4294 28.4408C45.5199 28.8787 46.5694 29.4027 47.5705 30.0028C48.5739 30.6048 49.527 31.2852 50.4223 32.0362Z" fill="#FFB655"/>
<path d="M55.9956 7.00253V9.33567C55.9956 11.2685 57.5626 12.8355 59.4954 12.8355C61.4282 12.8355 62.9952 11.2685 62.9952 9.33567V7.00253C62.9952 5.06971 61.4282 3.50275 59.4954 3.50275C57.5626 3.50275 55.9956 5.06955 55.9956 7.00253Z" fill="#EEBF00"/>
<path d="M36.0224 13.8602C34.656 15.2267 34.6556 17.4428 36.0223 18.8095L38.3516 21.1392C39.0353 21.8228 39.9309 22.1646 40.8264 22.1646C41.7218 22.1646 42.6178 21.8228 43.3011 21.1393C44.6676 19.7729 44.6679 17.557 43.3013 16.1901L40.9719 13.8604C39.6049 12.4937 37.3891 12.4937 36.0224 13.8602Z" fill="#EEBF00"/>
<path d="M78.0257 13.8604L75.6963 16.1901C74.3298 17.5569 74.3298 19.7727 75.6965 21.1393C76.3801 21.8227 77.2752 22.1646 78.171 22.1646C79.0666 22.1646 79.9626 21.8228 80.6457 21.1392L82.9751 18.8095C84.3416 17.4427 84.3414 15.2267 82.9749 13.8602C81.608 12.4937 79.3921 12.4937 78.0257 13.8604Z" fill="#EEBF00"/>
<path d="M16.3321 80.4973H38.4972V26.9688C37.7284 26.8879 36.9506 26.8435 36.164 26.8435C24.2815 26.8435 14.5532 36.2421 14.0218 47.9958C6.10593 49.1211 0 55.9433 0 64.165C0 73.1706 7.32639 80.4973 16.3321 80.4973Z" fill="#C6C5CA"/>
<path d="M59.4954 19.8349C55.6777 19.8349 52.0489 21.0432 49.0018 23.3294C47.1579 24.7133 45.6003 26.4646 44.429 28.4409C45.5195 28.8788 46.5691 29.4028 47.5702 30.003C48.5737 30.6048 49.5269 31.2851 50.4222 32.0361C53.1157 34.296 55.2762 37.198 56.6569 40.553L57.0599 40.8333H57.1626C58.374 40.8333 59.5602 40.9429 60.7118 41.1524V19.8816C60.3095 19.8541 59.9046 19.8349 59.4954 19.8349Z" fill="#EE8700"/>
</g>
<defs>
<clipPath id="clip0_7_2">
<rect width="84" height="84" fill="white"/>
</clipPath>
</defs>
</svg>
